<svg width="1200" height="700" xmlns="http://www.w3.org/2000/svg"><rect width="100%" height="100%" fill="#070708"/><rect x="450" y="70" width="300" height="60" rx="12" fill="#1A1A1F" stroke="#4ADE80" stroke-width="2"/><text x="600" y="105" text-anchor="middle" fill="#F2F2F2" font-size="16" font-weight="600">香港問天寶業（科技）有限公司</text><line x1="600" y1="130" x2="600" y2="170" stroke="#4ADE80" stroke-width="2"/><line x1="300" y1="170" x2="900" y2="170" stroke="#4ADE80" stroke-width="2"/><line x1="300" y1="170" x2="300" y2="210" stroke="#4ADE80" stroke-width="2"/><line x1="900" y1="170" x2="900" y2="210" stroke="#E8C268" stroke-width="2"/><rect x="150" y="210" width="300" height="60" rx="12" fill="#1A1A1F" stroke="#4ADE80" stroke-width="2"/><text x="300" y="245" text-anchor="middle" fill="#4ADE80" font-size="16" font-weight="600">香港分部</text><rect x="750" y="210" width="300" height="60" rx="12" fill="#1A1A1F" stroke="#E8C268" stroke-width="2"/><text x="900" y="245" text-anchor="middle" fill="#E8C268" font-size="16" font-weight="600">內地分部</text><line x1="300" y1="270" x2="300" y2="310" stroke="#4ADE80" stroke-width="2"/><line x1="100" y1="310" x2="500" y2="310" stroke="#4ADE80" stroke-width="2"/><line x1="100" y1="310" x2="100" y2="340" stroke="#4ADE80" stroke-width="2"/><line x1="300" y1="310" x2="300" y2="340" stroke="#4ADE80" stroke-width="2"/><line x1="500" y1="310" x2="500" y2="340" stroke="#4ADE80" stroke-width="2"/><rect x="20" y="340" width="160" height="100" rx="10" fill="#0A0A0A" stroke="#4ADE80"/><text x="100" y="370" text-anchor="middle" fill="#F2F2F2" font-size="13">香港分公司 1</text><text x="100" y="390" text-anchor="middle" fill="#A8A8A8" font-size="11">客戶服務</text><rect x="220" y="340" width="160" height="100" rx="10" fill="#0A0A0A" stroke="#4ADE80"/><text x="300" y="370" text-anchor="middle" fill="#F2F2F2" font-size="13">香港分公司 2</text><text x="300" y="390" text-anchor="middle" fill="#A8A8A8" font-size="11">科技赋能</text><rect x="420" y="340" width="160" height="100" rx="10" fill="#0A0A0A" stroke="#4ADE80"/><text x="500" y="370" text-anchor="middle" fill="#F2F2F2" font-size="13">香港集散中心</text><text x="500" y="390" text-anchor="middle" fill="#A8A8A8" font-size="11">粉嶺</text><line x1="900" y1="270" x2="900" y2="310" stroke="#E8C268" stroke-width="2"/><line x1="800" y1="310" x2="1000" y2="310" stroke="#E8C268" stroke-width="2"/><line x1="800" y1="310" x2="800" y2="340" stroke="#E8C268" stroke-width="2"/><line x1="1000" y1="310" x2="1000" y2="340" stroke="#E8C268" stroke-width="2"/><rect x="720" y="340" width="160" height="100" rx="10" fill="#0A0A0A" stroke="#E8C268"/><text x="800" y="370" text-anchor="middle" fill="#F2F2F2" font-size="13">內地分公司 1</text><text x="800" y="390" text-anchor="middle" fill="#A8A8A8" font-size="11">蔬菜供應</text><text x="800" y="410" text-anchor="middle" fill="#A8A8A8" font-size="11">廣東東莞</text><rect x="920" y="340" width="160" height="100" rx="10" fill="#0A0A0A" stroke="#E8C268" stroke-dasharray="6,3"/><text x="1000" y="370" text-anchor="middle" fill="#F2F2F2" font-size="13">內地分公司 2</text><text x="1000" y="390" text-anchor="middle" fill="#A8A8A8" font-size="11">糧油供應</text><text x="1000" y="410" text-anchor="middle" fill="#E8C268" font-size="11">組建中</text><text x="600" y="560" text-anchor="middle" fill="#666" font-size="12">虛線框表示組建中</text></svg>